<svg xmlns="http://www.w3.org/2000/svg"  viewBox="0 0 50 50" width="50px" height="50px"><path d="M 7 3 L 7 47 L 8 47 L 9 47 L 39.570312 47 L 37.773438 45 L 28.285156 45 L 9 45 L 9 5 L 31 5 L 31 15 L 41 15 L 41 18 L 41 19 L 41 23.330078 L 43 25.330078 L 43 19 L 43 18 L 43 13.585938 L 32.414062 3 L 7 3 z M 33 6.4140625 L 39.585938 13 L 33 13 L 33 6.4140625 z M 31.714844 18.007812 C 31.018733 18.007812 30.322387 18.270165 29.796875 18.794922 C 28.74397 19.846255 28.74397 21.583432 29.796875 22.634766 L 29.90625 22.744141 L 22.744141 29.904297 L 22.634766 29.794922 C 22.109093 29.269249 21.411561 29.007812 20.714844 29.007812 C 20.018733 29.007812 19.322387 29.270165 18.796875 29.794922 C 17.74397 30.846255 17.74397 32.583432 18.796875 33.634766 L 27.367188 42.205078 C 27.89286 42.730751 28.59255 43 29.285156 43 C 29.977342 43 30.678702 42.731454 31.205078 42.205078 C 32.257983 41.153745 32.257983 39.41852 31.205078 38.367188 L 31.15625 38.318359 L 32.923828 36.550781 L 44.136719 49.087891 L 44.15625 49.107422 C 45.470285 50.421457 47.638616 50.296338 48.966797 48.966797 C 50.294104 47.63813 50.421457 45.470285 49.107422 44.15625 L 49.087891 44.136719 L 36.550781 32.923828 L 38.318359 31.15625 L 38.367188 31.205078 C 38.89286 31.730751 39.59255 32 40.285156 32 C 40.977342 32 41.678702 31.731454 42.205078 31.205078 C 43.257983 30.153745 43.257983 28.41852 42.205078 27.367188 L 33.634766 18.794922 C 33.109093 18.269249 32.411561 18.007812 31.714844 18.007812 z M 31.716797 19.994141 C 31.897074 19.994141 32.076376 20.06661 32.220703 20.210938 L 40.791016 28.78125 C 41.078111 29.067916 41.078111 29.504349 40.791016 29.791016 C 40.647346 29.934639 40.468971 30 40.285156 30 C 40.099763 30 39.925577 29.935343 39.78125 29.791016 L 31.208984 21.21875 C 30.921889 20.932084 30.921889 20.497604 31.208984 20.210938 L 31.210938 20.210938 C 31.355265 20.06661 31.536519 19.994141 31.716797 19.994141 z M 31.320312 24.158203 L 36.904297 29.742188 L 29.742188 36.904297 L 24.158203 31.320312 L 31.320312 24.158203 z M 20.716797 30.994141 C 20.897075 30.994141 21.076376 31.06661 21.220703 31.210938 L 29.791016 39.78125 C 30.078111 40.067916 30.078111 40.504349 29.791016 40.791016 C 29.647346 40.934639 29.468971 41 29.285156 41 C 29.099763 41 28.925577 40.935343 28.78125 40.791016 L 20.208984 32.21875 C 19.921889 31.932084 19.921889 31.497604 20.208984 31.210938 L 20.210938 31.210938 C 20.355265 31.06661 20.536519 30.994141 20.716797 30.994141 z M 35.134766 34.339844 L 47.695312 45.576172 C 48.17481 46.061029 48.175501 46.92933 47.552734 47.552734 C 46.930838 48.175267 46.061034 48.174815 45.576172 47.695312 L 34.339844 35.134766 L 35.134766 34.339844 z"/></svg>