<svg xmlns="http://www.w3.org/2000/svg"  viewBox="0 0 50 50" width="50px" height="50px"><path d="M 24.886719 4 C 20.237923 4.085583 17.260613 5.8162144 15.960938 8.6113281 C 14.720707 11.278597 14.989525 14.658322 15.878906 18.296875 C 15.405887 18.854494 15.025829 19.60761 15.160156 20.730469 L 15.162109 20.732422 C 15.30996 21.961363 15.64089 22.834141 16.123047 23.449219 C 16.38507 23.783476 16.723688 23.818196 17.042969 23.980469 C 17.220303 25.025941 17.531277 26.077894 17.96875 26.951172 C 18.220273 27.453259 18.488539 27.901327 18.767578 28.277344 C 18.891786 28.444719 19.071368 28.548643 19.203125 28.689453 C 19.209725 29.925853 19.233763 30.949455 19.126953 32.253906 C 18.800554 33.035903 18.032051 33.680342 16.804688 34.292969 C 15.535405 34.926518 13.882883 35.487316 12.212891 36.205078 C 10.542898 36.92284 8.8377525 37.802083 7.4785156 39.177734 C 6.1192788 40.553385 5.1515059 42.451289 5.0019531 44.939453 L 4.9375 46 L 15 46 L 16.902344 46 L 17.304688 44 L 15 44 L 7.2421875 44 C 7.5242378 42.580272 8.0538804 41.442694 8.9023438 40.583984 C 9.9678569 39.505604 11.429446 38.718832 13.001953 38.042969 C 14.574461 37.367106 16.240297 36.809263 17.697266 36.082031 C 18.664671 35.59916 19.57134 35.017586 20.242188 34.234375 C 20.416632 34.307355 20.613889 34.383343 20.835938 34.453125 C 20.995705 34.503335 21.187883 34.551941 21.376953 34.599609 L 18.880859 46 L 31.119141 46 L 28.623047 34.599609 C 28.812117 34.551941 29.004295 34.503335 29.164062 34.453125 C 29.430958 34.369249 29.652179 34.279902 29.849609 34.193359 C 31.05108 35.621592 33.09802 36.440837 35.25 37.289062 C 35.55 37.409063 35.860156 37.530625 36.160156 37.640625 C 35.970156 37.020625 35.929063 36.370703 36.039062 35.720703 C 36.049062 35.630703 36.069844 35.540937 36.089844 35.460938 C 36.049844 35.450938 36.020469 35.429922 35.980469 35.419922 C 33.570469 34.479922 31.489453 33.659687 30.939453 32.179688 C 30.933414 32.163986 30.920765 32.153894 30.914062 32.138672 C 30.819602 30.88786 30.843173 29.885402 30.849609 28.683594 C 30.979703 28.541995 31.159826 28.436833 31.28125 28.269531 C 31.55523 27.892034 31.818236 27.443356 32.0625 26.941406 C 32.488244 26.066524 32.789543 25.016358 32.962891 23.974609 C 33.279085 23.812306 33.615369 23.780425 33.875 23.449219 C 34.357157 22.834141 34.69004 21.961363 34.837891 20.732422 C 34.969341 19.641293 34.612414 18.900672 34.160156 18.341797 C 34.640963 16.814697 35.257297 14.459387 35.048828 12.044922 C 34.934559 10.721403 34.560723 9.3859646 33.685547 8.2910156 C 32.86239 7.2611482 31.563591 6.5459091 29.90625 6.25 C 28.88814 4.9274608 27.150001 4 24.90625 4 L 24.896484 4 L 24.886719 4 z M 24.912109 6.0019531 C 26.825854 6.0041931 28.19771 6.9060238 28.617188 7.6445312 L 28.859375 8.0722656 L 29.347656 8.140625 C 30.76367 8.3374032 31.573723 8.8517928 32.123047 9.5390625 C 32.672371 10.226332 32.964915 11.156394 33.056641 12.21875 C 33.240091 14.343462 32.5712 16.890477 32.125 18.232422 L 31.873047 18.988281 L 32.554688 19.402344 C 32.511567 19.376174 32.951624 19.661609 32.851562 20.492188 C 32.733413 21.474245 32.480625 21.985421 32.300781 22.214844 C 32.120938 22.444266 32.027128 22.432972 32.019531 22.433594 L 31.195312 22.5 L 31.107422 23.324219 C 31.014742 24.188956 30.666894 25.237806 30.263672 26.066406 C 30.062061 26.480706 29.845598 26.842888 29.662109 27.095703 C 29.478621 27.348518 29.28186 27.483615 29.376953 27.433594 L 28.841797 27.714844 L 28.841797 28.318359 C 28.841797 29.70229 28.793891 30.850046 28.921875 32.412109 C 28.807756 32.456929 28.745697 32.489916 28.564453 32.546875 C 27.872884 32.764213 26.726324 33 25 33 C 23.273676 33 22.127116 32.764213 21.435547 32.546875 C 21.278924 32.497653 21.232743 32.469945 21.126953 32.429688 C 21.256985 30.8585 21.210938 29.708152 21.210938 28.318359 L 21.210938 27.712891 L 20.673828 27.431641 C 20.764138 27.479021 20.561758 27.340231 20.373047 27.085938 C 20.184336 26.831641 19.963336 26.46885 19.755859 26.054688 C 19.340906 25.226361 18.983935 24.180478 18.892578 23.324219 L 18.804688 22.5 L 17.980469 22.433594 C 17.972869 22.432972 17.877109 22.444264 17.697266 22.214844 C 17.517607 21.985657 17.264788 21.474222 17.146484 20.494141 L 17.146484 20.492188 C 17.049054 19.664589 17.488368 19.374183 17.445312 19.400391 L 18.080078 19.015625 L 17.892578 18.294922 C 16.94946 14.665347 16.810863 11.525214 17.773438 9.4550781 C 18.734981 7.387157 20.716155 6.0819164 24.912109 6.0019531 z M 44 31 C 43.226904 31 42.59049 31.437595 42.125 32.042969 C 41.428643 31.889868 40.693708 31.925893 40.076172 32.419922 C 39.459526 32.913238 39.293791 33.65971 39.320312 34.380859 C 38.670195 34.734719 38.141149 35.270294 38.013672 36.035156 C 37.886787 36.796463 38.204862 37.466729 38.683594 38.005859 C 38.405575 38.714519 38.371447 39.497328 38.742188 40.115234 C 38.815249 40.237003 38.907285 40.337939 39 40.4375 L 39 49 A 1.0001 1.0001 0 0 0 40.599609 49.800781 L 44 47.25 L 47.400391 49.800781 A 1.0001 1.0001 0 0 0 49 49 L 49 40.435547 C 49.092429 40.336301 49.184953 40.236668 49.257812 40.115234 C 49.691637 39.392196 49.610319 38.654225 49.330078 37.990234 C 49.7995 37.452537 50.111981 36.789075 49.986328 36.035156 C 49.858851 35.270294 49.329804 34.734719 48.679688 34.380859 C 48.706207 33.65971 48.540474 32.913238 47.923828 32.419922 C 47.305736 31.925451 46.569912 31.889206 45.873047 32.042969 C 45.418968 31.459511 44.791529 31 44 31 z M 45.599609 32.099609 C 45.596209 32.099609 45.624357 32.105469 45.623047 32.105469 C 45.572601 32.12216 45.519175 32.12814 45.466797 32.136719 L 45.599609 32.099609 z M 46.019531 32.238281 C 46.048261 32.262051 46.134865 32.320409 46.107422 32.292969 L 46.089844 32.333984 C 46.070294 32.299144 46.040831 32.272161 46.019531 32.238281 z M 44 33 C 44.319048 33 44.367122 33.06426 44.451172 33.316406 A 1.0001 1.0001 0 0 0 44.693359 33.707031 C 44.693359 33.707031 44.695312 33.708984 44.695312 33.708984 A 1.0001 1.0001 0 0 0 44.896484 33.863281 C 44.947094 33.905531 44.938374 33.925241 45.052734 33.982422 C 45.316248 34.114179 45.549609 34.099609 45.599609 34.099609 A 1.0001 1.0001 0 0 0 46.115234 33.957031 C 46.262149 33.868881 46.531299 33.864879 46.675781 33.980469 C 46.845658 34.11637 46.857087 34.16898 46.751953 34.484375 A 1.0001 1.0001 0 0 0 46.699219 34.800781 C 46.699219 34.915927 46.761919 34.935586 46.802734 35.042969 A 1.0001 1.0001 0 0 0 47.634766 35.986328 C 47.790444 36.012278 47.987725 36.209556 48.013672 36.365234 C 48.042582 36.538686 47.932072 36.753648 47.785156 36.841797 A 1.0001 1.0001 0 0 0 47.300781 37.699219 L 47.300781 38 A 1.0001 1.0001 0 0 0 47.5 38.599609 C 47.528 38.636939 47.580679 39.023091 47.542969 39.085938 C 47.454819 39.232852 47.237904 39.343362 47.064453 39.314453 A 1.0001 1.0001 0 0 0 46.087891 39.71875 C 46.040011 39.75543 46.047487 39.737669 45.992188 39.792969 A 1.0001 1.0001 0 0 0 45.699219 40.5 C 45.699219 40.766667 45.704919 40.778054 45.484375 40.851562 A 1.0001 1.0001 0 0 0 45.353516 40.90625 C 45.345477 40.910269 45.350301 40.909677 45.347656 40.912109 C 45.348816 40.90675 45.367446 40.900391 45.300781 40.900391 C 45.234111 40.900391 45.049115 40.836221 44.90625 40.693359 A 1.0001 1.0001 0 0 0 44.199219 40.400391 L 44 40.400391 L 43.800781 40.400391 A 1.0001 1.0001 0 0 0 43.09375 40.693359 C 42.939454 40.847656 42.754608 40.894848 42.550781 40.841797 C 42.425648 40.776447 42.300781 40.643265 42.300781 40.5 C 42.300781 40.308333 42.225401 40.044093 42.101562 39.867188 C 41.97773 39.690281 41.854388 39.609306 41.792969 39.568359 C 41.737133 39.531137 41.727187 39.523159 41.732422 39.527344 A 1.0001 1.0001 0 0 0 40.935547 39.314453 C 40.762096 39.343363 40.54518 39.232853 40.457031 39.085938 C 40.338618 38.888582 40.32425 38.820271 40.480469 38.625 A 1.0001 1.0001 0 0 0 40.699219 38 L 40.699219 37.699219 A 1.0001 1.0001 0 0 0 40.214844 36.841797 C 40.067929 36.753647 39.95742 36.538686 39.986328 36.365234 C 40.012278 36.209556 40.209556 36.012275 40.365234 35.986328 A 1.0001 1.0001 0 0 0 41.197266 35.042969 C 41.238076 34.935586 41.300781 34.915927 41.300781 34.800781 A 1.0001 1.0001 0 0 0 41.248047 34.484375 C 41.142915 34.16898 41.154349 34.11637 41.324219 33.980469 C 41.468701 33.864883 41.737851 33.868884 41.884766 33.957031 A 1.0001 1.0001 0 0 0 42.945312 33.9375 A 1.0001 1.0001 0 0 0 43.548828 33.316406 C 43.601253 33.159126 43.844444 33 44 33 z M 39.339844 34.833984 C 39.359394 34.925914 39.322393 35.029696 39.351562 35.117188 L 39.310547 34.867188 L 39.339844 34.833984 z M 48.660156 34.833984 L 48.689453 34.867188 L 48.648438 35.117188 C 48.677597 35.029697 48.640636 34.925913 48.660156 34.833984 z M 23.355469 34.919922 C 23.855641 34.965858 24.389784 35 25 35 C 25.610216 35 26.144359 34.965858 26.644531 34.919922 L 28.632812 44 L 21.367188 44 L 23.355469 34.919922 z M 41 42.095703 C 41.220668 42.372796 41.495088 42.595301 41.828125 42.728516 A 1.0001 1.0001 0 0 0 41.882812 42.748047 C 42.652076 43.004468 43.389681 42.784547 44 42.400391 L 44.160156 42.400391 C 44.519072 42.613694 44.838305 42.900391 45.300781 42.900391 C 45.482203 42.900391 45.854872 42.841011 46.160156 42.714844 C 46.508399 42.588312 46.784421 42.375238 47 42.111328 L 47 47 L 44.599609 45.199219 A 1.0001 1.0001 0 0 0 43.400391 45.199219 L 41 47 L 41 42.095703 z M 32.695312 44 L 33.097656 46 L 37 46 L 37 44 L 32.695312 44 z"/></svg>