<svg xmlns="http://www.w3.org/2000/svg"  viewBox="0 0 50 50" width="50px" height="50px"><path d="M 38.9375 -0.03125 C 38.6875 -0.0117188 38.453125 0.0976563 38.28125 0.28125 L 35.8125 2.75 L 31.5 0.15625 C 31.113281 -0.0859375 30.613281 -0.0351563 30.28125 0.28125 L 27.8125 2.75 L 23.5 0.15625 C 23.113281 -0.0859375 22.613281 -0.0351563 22.28125 0.28125 L 19.8125 2.75 L 15.5 0.15625 C 15.113281 -0.0859375 14.613281 -0.0351563 14.28125 0.28125 L 11.8125 2.75 L 7.5 0.15625 C 7.304688 0.03125 7.074219 -0.0273438 6.84375 0 C 6.527344 0.046875 6.25 0.242188 6.101563 0.527344 C 5.953125 0.8125 5.949219 1.152344 6.09375 1.4375 C 6.09375 1.4375 9 7.398438 9 12 C 9 14.300781 8.335938 15.863281 7.59375 17.46875 C 7.363281 17.96875 7.128906 18.472656 6.90625 19 L 4 19 C 1.859375 19 0 20.75 0 23 L 0 50 L 50 50 L 50 23 C 50 20.859375 48.25 19 46 19 L 40.875 19 C 41.039063 18.644531 41.222656 18.304688 41.40625 17.9375 C 42.15625 16.4375 43 14.699219 43 12 C 43 6.601563 39.90625 0.5625 39.90625 0.5625 C 39.738281 0.183594 39.351563 -0.0546875 38.9375 -0.03125 Z M 15.1875 2.25 L 19.5 4.84375 C 19.886719 5.085938 20.386719 5.035156 20.71875 4.71875 L 23.1875 2.25 L 27.5 4.84375 C 27.886719 5.085938 28.386719 5.035156 28.71875 4.71875 L 31.1875 2.25 L 35.5 4.84375 C 35.886719 5.085938 36.386719 5.035156 36.71875 4.71875 L 38.65625 2.78125 C 39.375 4.394531 41 8.269531 41 12 C 41 14.300781 40.34375 15.5625 39.59375 17.0625 C 38.84375 18.5625 38 20.300781 38 23 C 38 27.347656 39.714844 31.308594 40.5 33 L 10.6875 33 C 10.511719 32.582031 10.0625 31.5625 9.4375 29.6875 C 8.703125 27.480469 8 24.75 8 23 C 8 21.25 8.648438 19.925781 9.40625 18.28125 C 10.164063 16.636719 11 14.699219 11 12 C 11 8.683594 9.996094 5.660156 9.09375 3.40625 L 11.5 4.84375 C 11.886719 5.085938 12.386719 5.035156 12.71875 4.71875 Z M 4 21 L 6.25 21 C 6.105469 21.621094 6 22.277344 6 23 C 6 25.25 6.796875 28.019531 7.5625 30.3125 C 8.328125 32.605469 9.09375 34.40625 9.09375 34.40625 C 9.253906 34.765625 9.609375 34.996094 10 35 L 42 35 C 42.347656 35.003906 42.667969 34.824219 42.851563 34.535156 C 43.039063 34.242188 43.058594 33.875 42.90625 33.5625 C 42.90625 33.5625 40 27.601563 40 23 C 40 22.234375 40.09375 21.582031 40.21875 21 L 46 21 C 47.152344 21 48 21.941406 48 23 L 48 48 L 2 48 L 2 23 C 2 21.847656 2.941406 21 4 21 Z M 9.3125 36 C 8.042969 36 7 36.921875 7 38.1875 L 7 43.6875 C 7 44.957031 8.042969 46 9.3125 46 L 40.6875 46 C 41.957031 46 42.90625 45.101563 43.09375 43.96875 L 43.09375 38.3125 C 43.09375 37.042969 42.082031 36 40.8125 36 Z M 9.3125 38 L 40.8125 38 C 40.941406 38 41.09375 38.183594 41.09375 38.3125 L 41.09375 43.65625 C 41.046875 43.746094 40.804688 44 40.6875 44 L 9.3125 44 C 9.183594 44 9 43.816406 9 43.6875 L 9 38.1875 C 9 38.253906 9.183594 38 9.3125 38 Z M 15 39.09375 C 14.5 39.09375 14.09375 39.5 14.09375 40 L 14.09375 42.09375 C 14.09375 42.59375 14.5 43 15 43 L 17.09375 43 C 17.59375 43 18 42.59375 18 42.09375 L 18 40 C 18 39.5 17.59375 39.09375 17.09375 39.09375 Z M 24 39.09375 C 23.5 39.09375 23.09375 39.5 23.09375 40 L 23.09375 42.09375 C 23.09375 42.59375 23.5 43 24 43 L 26.09375 43 C 26.59375 43 27 42.59375 27 42.09375 L 27 40 C 27 39.5 26.59375 39.09375 26.09375 39.09375 Z M 33 39.09375 C 32.5 39.09375 32.09375 39.5 32.09375 40 L 32.09375 42.09375 C 32.09375 42.59375 32.5 43 33 43 L 35.09375 43 C 35.59375 43 36 42.59375 36 42.09375 L 36 40 C 36 39.5 35.59375 39.09375 35.09375 39.09375 Z"/></svg>