<svg xmlns="http://www.w3.org/2000/svg"  viewBox="0 0 50 50" width="50px" height="50px"><path d="M 25 2 C 17.712204 2 11.214814 5.4020866 7 10.699219 L 7 4 A 1.0001 1.0001 0 0 0 5.984375 2.9863281 A 1.0001 1.0001 0 0 0 5 4 L 5 14 L 15 14 A 1.0001 1.0001 0 1 0 15 12 L 8.5195312 12 C 12.364806 7.130711 18.307314 4 25 4 C 36.609534 4 46 13.390466 46 25 C 46 36.609534 36.609534 46 25 46 L 24.990234 46 L 23.990234 46 L 23.990234 46.916016 A 1.0001 1.0001 0 0 0 23.990234 47.082031 L 23.990234 48 L 24.990234 48 A 1.0001 1.0001 0 0 0 25 48 L 26 48 L 26 47.974609 C 38.226842 47.449124 48 37.354845 48 25 C 48 12.309534 37.690466 2 25 2 z M 24 11 L 24 14.052734 C 22.268 14.220734 20.861406 14.833625 19.816406 15.890625 C 17.990406 17.737625 17.999 20.239984 18 20.333984 C 18 24.635984 21.761203 25.472531 24.783203 26.144531 C 28.018203 26.861531 30 27.433 30 30 C 30 33.93 25.202 33.999 25 34 C 20.191 34 20.005 30.402188 20 29.992188 L 19 30 L 18 30 C 18 31.944 19.284 35.510125 24 35.953125 L 24 39 L 26 39 L 26 35.935547 C 28.498 35.629547 32 34.151 32 30 C 32 25.698 28.238797 24.861453 25.216797 24.189453 C 21.981797 23.472453 20 22.900172 20 20.326172 C 20 20.315172 20.005766 19.18075 20.634766 18.09375 C 21.437766 16.70475 22.907 16 25 16 C 28.805 16 28.991 19.604719 29 20.011719 L 31 19.986328 C 30.976 18.072328 29.868 14.587312 26 14.070312 L 26 11 L 24 11 z M 2 24 L 2 25 L 2 25.011719 L 2 26.011719 L 4 26.011719 L 4 25.011719 L 4 25 L 4 24 L 2 24 z M 4.0976562 27.623047 L 2.1425781 28.046875 L 2.3535156 29.023438 L 2.3574219 29.042969 L 2.5683594 30.019531 L 4.5234375 29.597656 L 4.3125 28.619141 L 4.3085938 28.601562 L 4.0976562 27.623047 z M 4.8847656 31.214844 L 3.0273438 31.957031 L 3.3964844 32.884766 L 3.4042969 32.904297 L 3.7753906 33.832031 L 5.6328125 33.091797 L 5.2617188 32.162109 L 5.2539062 32.144531 L 4.8847656 31.214844 z M 6.2910156 34.613281 L 4.578125 35.646484 L 5.0957031 36.503906 L 5.1054688 36.519531 L 5.6230469 37.375 L 7.3339844 36.341797 L 6.8183594 35.486328 L 6.8085938 35.46875 L 6.2910156 34.613281 z M 8.2675781 37.712891 L 6.7441406 39.007812 L 7.390625 39.769531 L 7.4042969 39.785156 L 8.0507812 40.546875 L 9.5761719 39.251953 L 8.9277344 38.490234 L 8.9160156 38.474609 L 8.2675781 37.712891 z M 10.75 40.423828 L 9.4511719 41.945312 L 10.212891 42.59375 L 10.226562 42.607422 L 10.988281 43.255859 L 12.287109 41.734375 L 11.525391 41.085938 L 11.511719 41.072266 L 10.75 40.423828 z M 13.660156 42.666016 L 12.623047 44.375 L 13.478516 44.894531 L 13.494141 44.904297 L 14.349609 45.421875 L 15.386719 43.712891 L 14.53125 43.193359 L 14.515625 43.183594 L 13.660156 42.666016 z M 16.910156 44.367188 L 16.166016 46.224609 L 17.09375 46.595703 L 17.111328 46.603516 L 18.039062 46.976562 L 18.783203 45.119141 L 17.855469 44.748047 L 17.837891 44.740234 L 16.910156 44.367188 z M 20.404297 45.476562 L 19.976562 47.429688 L 20.953125 47.644531 L 20.972656 47.648438 L 21.949219 47.861328 L 22.376953 45.908203 L 21.400391 45.693359 L 21.380859 45.689453 L 20.404297 45.476562 z"/></svg>