<svg xmlns="http://www.w3.org/2000/svg"  viewBox="0 0 50 50" width="50px" height="50px"><path d="M 13.015625 2 C 11.432292 2 10.11947 2.6297556 9.2695312 3.5859375 C 8.4195921 4.5421194 8.015625 5.7777779 8.015625 7 C 8.015625 8.2222221 8.4195921 9.4578811 9.2695312 10.414062 C 10.11947 11.370245 11.432292 12 13.015625 12 C 14.598958 12 15.913733 11.370244 16.763672 10.414062 C 17.613611 9.4578811 18.015625 8.2222221 18.015625 7 C 18.015625 5.7777779 17.613611 4.5421194 16.763672 3.5859375 C 15.913733 2.6297556 14.598958 2 13.015625 2 z M 13.015625 4 C 14.098958 4 14.786138 4.3702444 15.269531 4.9140625 C 15.752925 5.4578806 16.015625 6.2222221 16.015625 7 C 16.015625 7.7777779 15.752925 8.5421194 15.269531 9.0859375 C 14.786138 9.6297556 14.098958 10 13.015625 10 C 11.932292 10 11.247066 9.6297556 10.763672 9.0859375 C 10.280278 8.5421194 10.015625 7.7777779 10.015625 7 C 10.015625 6.2222221 10.280278 5.4578806 10.763672 4.9140625 C 11.247066 4.3702444 11.932292 4 13.015625 4 z M 8.4765625 13 C 5.4522579 13 2.9765625 15.476746 2.9765625 18.5 L 2.9765625 29.929688 L 2.9765625 30 A 1.0001 1.0001 0 0 0 3.28125 30.732422 C 3.6424846 31.983691 4.6160254 33 5.9765625 33 C 6.328405 33 6.661671 32.92606 6.9765625 32.8125 L 6.9765625 42.5 C 6.9765625 44.421188 8.5553747 46 10.476562 46 C 11.455749 46 12.33896 45.584291 12.976562 44.927734 C 13.614164 45.584273 14.497392 46 15.476562 46 C 17.397751 46 18.976562 44.421188 18.976562 42.5 L 18.976562 22.824219 L 19.859375 24.148438 C 20.851932 25.637273 22.853948 26.108246 24.40625 25.216797 L 28.498047 22.867188 A 1.0001 1.0001 0 0 0 28.517578 22.855469 C 29.355331 22.348791 29.833874 21.552342 29.978516 20.802734 C 30.122726 20.055361 30.006746 19.364441 29.654297 18.789062 C 29.246535 18.112008 28.590391 17.601322 27.822266 17.421875 C 27.052303 17.241999 26.214428 17.389675 25.435547 17.802734 A 1.0001 1.0001 0 0 0 25.414062 17.814453 L 23.359375 18.974609 L 20.96875 15.304688 L 20.966797 15.300781 C 20.966797 15.300781 20.964844 15.298828 20.964844 15.298828 L 20.947266 15.271484 A 1.0001 1.0001 0 0 0 20.523438 14.900391 C 19.687048 13.875144 18.457906 13.268605 17.054688 13.130859 A 1.0001 1.0001 0 0 0 16.576172 13 L 16.476562 13 L 9.3769531 13 L 8.4765625 13 z M 10.138672 15 L 15.417969 15 C 14.53797 16.539637 13.657293 18.079232 12.777344 19.619141 C 11.897554 18.079512 11.018182 16.539544 10.138672 15 z M 7.8730469 15.060547 A 1.0001 1.0001 0 0 0 7.9101562 15.130859 C 9.1713026 17.338103 10.432199 19.546711 11.693359 21.753906 A 1.5 1.5 0 0 0 12.277344 24.634766 A 1.5 1.5 0 0 0 13.34375 24.189453 C 13.525936 24.436936 13.708035 24.684005 13.890625 24.931641 L 14.484375 25.736328 L 16.09375 24.548828 L 15.5 23.744141 C 14.978578 23.036967 14.458263 22.330506 13.9375 21.623047 C 15.162683 19.478842 16.388131 17.333686 17.613281 15.189453 C 18.34667 15.415891 18.948074 15.827073 19.25 16.328125 C 19.25 16.328125 19.251953 16.330078 19.251953 16.330078 A 1.0001 1.0001 0 0 0 19.271484 16.363281 L 22.195312 20.851562 A 1.0001 1.0001 0 0 0 23.523438 21.177734 L 26.373047 19.570312 C 26.814166 19.336375 27.13765 19.315517 27.367188 19.369141 C 27.596725 19.422761 27.776901 19.544738 27.943359 19.822266 A 1.0001 1.0001 0 0 0 27.949219 19.832031 C 27.977299 19.877631 28.065479 20.165436 28.015625 20.423828 C 27.965765 20.682221 27.851669 20.921209 27.482422 21.144531 L 23.410156 23.482422 C 22.754458 23.858973 21.94288 23.668227 21.523438 23.039062 L 18.820312 18.984375 A 1.0001 1.0001 0 0 0 16.980469 19.542969 A 1.0001 1.0001 0 0 0 16.980469 19.556641 A 1.0001 1.0001 0 0 0 16.976562 19.634766 L 16.976562 42.5 C 16.976562 43.340812 16.317374 44 15.476562 44 C 14.635751 44 13.976563 43.340812 13.976562 42.5 L 13.976562 31 A 1.0001 1.0001 0 0 0 12.960938 29.986328 A 1.0001 1.0001 0 0 0 11.976562 31 L 11.976562 42.429688 L 11.976562 42.5 C 11.976562 43.340812 11.317374 44 10.476562 44 C 9.6357503 43.999996 8.9765625 43.340812 8.9765625 42.5 L 8.9765625 30 L 8.9765625 21 A 1.0001 1.0001 0 1 0 6.9765625 21 L 6.9765625 30 C 6.9765625 30.56503 6.5415927 31 5.9765625 31 C 5.4115323 31 4.9765625 30.56503 4.9765625 30 L 4.9765625 18.5 C 4.9765625 16.768134 6.2246726 15.346148 7.8730469 15.060547 z M 41.015625 26 C 39.432292 26 38.11947 26.629756 37.269531 27.585938 C 36.419592 28.542119 36.015625 29.777778 36.015625 31 C 36.015625 32.222222 36.419592 33.457881 37.269531 34.414062 C 38.11947 35.370244 39.432292 36 41.015625 36 C 42.598958 36 43.913733 35.370244 44.763672 34.414062 C 45.613611 33.457881 46.015625 32.222222 46.015625 31 C 46.015625 29.777778 45.613611 28.542118 44.763672 27.585938 C 43.913733 26.629756 42.598958 26 41.015625 26 z M 41.015625 28 C 42.098958 28 42.786138 28.370244 43.269531 28.914062 C 43.752925 29.457881 44.015625 30.222222 44.015625 31 C 44.015625 31.777778 43.752925 32.542118 43.269531 33.085938 C 42.786138 33.629756 42.098958 34 41.015625 34 C 39.932292 34 39.247066 33.629756 38.763672 33.085938 C 38.280278 32.542119 38.015625 31.777778 38.015625 31 C 38.015625 30.222222 38.280278 29.457882 38.763672 28.914062 C 39.247066 28.370244 39.932292 28 41.015625 28 z M 30.015625 30 C 28.432292 30 27.11947 30.629756 26.269531 31.585938 C 25.419592 32.542119 25.015625 33.777778 25.015625 35 C 25.015625 36.222222 25.419592 37.457881 26.269531 38.414062 C 27.11947 39.370244 28.432292 40 30.015625 40 C 31.598958 40 32.913733 39.370244 33.763672 38.414062 C 34.613611 37.457881 35.015625 36.222222 35.015625 35 C 35.015625 33.777778 34.613611 32.542119 33.763672 31.585938 C 32.913733 30.629756 31.598958 30 30.015625 30 z M 30.015625 32 C 31.098958 32 31.786138 32.370244 32.269531 32.914062 C 32.752925 33.457881 33.015625 34.222222 33.015625 35 C 33.015625 35.777778 32.752925 36.542119 32.269531 37.085938 C 31.786138 37.629756 31.098958 38 30.015625 38 C 28.932292 38 28.247066 37.629756 27.763672 37.085938 C 27.280278 36.542119 27.015625 35.777778 27.015625 35 C 27.015625 34.222222 27.280278 33.457881 27.763672 32.914062 C 28.247066 32.370244 28.932292 32 30.015625 32 z M 41 37 C 37.75433 37 34.823061 38.884527 33.4375 41.759766 C 32.375312 41.280205 31.213533 41 30 41 C 26.419874 41 23.215903 43.28862 22.054688 46.675781 A 1.0001 1.0001 0 1 0 23.945312 47.324219 C 24.830098 44.74338 27.272126 43 30 43 C 32.727874 43 35.169902 44.74338 36.054688 47.324219 A 1.0001 1.0001 0 1 0 37.945312 46.675781 C 37.407332 45.10654 36.417131 43.789868 35.167969 42.810547 C 36.186476 40.520244 38.460908 39 41 39 C 43.727874 39 46.169902 40.74338 47.054688 43.324219 A 1.0001 1.0001 0 1 0 48.945312 42.675781 C 47.784098 39.28862 44.580126 37 41 37 z"/></svg>